<?xml version="1.0" encoding="UTF-8"?>
<svg xmlns="http://www.w3.org/2000/svg"
    version="1.0" height="225" width="200"
    viewBox="0 0 225 200"
    fill="none" stroke="#000" stroke-width="3">
    <path
        d="M99,4L193,167H5zM11,76 45.5,97M52
85.5 8,60M58.5,74 24,54m150,0-34.5,20M190,60
146,85.5M152.5,97
187,76M86,167v40m13-40v50m13-50v40M65,81a60,60
0 0,1 62-9M56,108a63,63 0 0,1 79-18M62,116a60,60
0 0,1 87-2M62,120q50,40 80-11M76,105a23.3,23.3
0 1,0 45-7M63,132a46,46 0 0,0 51,12" />
    <circle cx="61" cy="118" r="3" />
    <circle cx="99" cy="112" r="6" />
</svg>